<svg xmlns="http://www.w3.org/2000/svg" viewBox="0 0 2630 1618.5"><style type="text/css">  
	.st0{fill:#3C3A6E;}
	.st1{fill:#FFFFFF;}
	.st2{fill:#B22134;}
</style><path class="st0" d="M423.3 700.3L423.3 700.3z"/><path class="st0" d="M822.5 700.3L822.5 700.3z"/><path class="st0" d="M88.4 778.6c-4.4 3.8-10.4 7.1-10.8 13.2 2.6 3.9 5.9 7.3 8.9 10.9 0.9 1.5 1.7 3.1 2.6 4.7l0.7-0.5c2 5.4 4.1 10.7 6.3 16l10.2-31.3C106.2 791.6 88.4 778.6 88.4 778.6z"/><path class="st0" d="M1224.9 748.3V163.1c-38.3-0.3-76.5-0.5-114.8-1.2 -6.6 0.1-13.3-1-19.8 0.1 -20.5-1.9-41.1-1.6-61.6-3.1l4.3 13.2h35.5l-28.7 20.8 11 33.7 -28.7-20.9 -28.7 20.9 10.9-33.7L975.7 172h35.5l4.7-14.3c-2.8-0.2-5.6-0.2-8.4 0 -53.5-2.8-106.9-7.3-160.2-12.4 -3.9-0.4-7.8-0.8-11.7-1.2 -3.8-0.4-7.6-0.7-11.5-1.1l9.4 29h35.5l-28.7 20.8 11 33.7 -28.7-20.9 -28.7 20.9 10.9-33.7L776.1 172h35.5l9.5-29.3c-13.2-1.3-26.4-2.8-39.6-4.3 -10.8-1.2-21.5-2.6-32.2-4.2l2.2 6.7 -11-8c-9.6-1.5-19.2-3-28.8-4.7L694 141l4.9-15c-48-8.7-95.7-19.4-143.5-29.3l-14.5 10.5 10.9 33.7 -28.7-20.8L494.4 141l11-33.7 -28.7-20.8h27.2c-4.3-1.5-8.9-2.1-13.3-3.1 -57.2-11.7-114.3-23.8-171.3-36.1 -1.3 0-3.8 0.1-5.1 0.2l0.4-1.2c-17.4-3.9-34.8-7.8-52.1-12.2 -10.9-2.8-20.9-7.9-31-12.5 -0.2 6.4 0.8 13.1-1.4 19.3 -3.5 2.1-7.5 3.3-11.3 4.8 0.2 6.1 1.9 12.1 2 18.2 -4.4 8.5-16.6 10-24.9 6.7 -13.7-7-24.4-18.5-35.3-29.1 -3.4 3.8-2.6 9.3-4.6 13.8 -1.9 4.4-3.8 8.7-5.2 13.2 2.1 3.9 5 7.2 8.6 9.8 0.5 2.7 1 5.5 1.5 8.2h9.5l-8.5 6.2c0.6 3.9 1.1 7.9 1.2 11.9 -0.1 15.5-8.5 29.2-10.4 44.4 -4.3 16.1 0.5 33.7-7.2 49 -3.6 7.3 2.7 15.1-0.7 22.4 -2.4 7.3-5.1 14.4-7.7 21.5 -1.4 3.6-2.7 7.3-3.8 11.1l1.5 4.7h35.5l-28.7 20.9 10.9 33.6 -28.6-20.8 -6.6 4.8c-7.2 16.1-18 30.5-23.8 47.3 -8.8 8.3-20.8 15.1-24.2 27.6 -2.6 6.6 2.9 12.8 2.2 19.4 -2.2 4-7 5.8-10.1 9.2 0.9 6.7 1.3 13.5 3.1 20 5.4 12.8 5.4 27.2 3.2 40.8 -0.9 5.5-7.6 7.3-9.4 12.3 -2.4 7.7-1.4 16-3.1 23.8 -4.4 6.3-11.6 9.9-16.2 16 -2.8 5.3-2.9 11.5-4.1 17.3 9.8 10.5 13.2 24.9 15.7 38.7 1.1 7.8-10.5 10.3-9.5 18.1 -0.4 8.4 3.1 17.3-0.5 25.3 -0.8 2.9-3.7 6.7-0.6 9.2 11.6 12.3 17.3 28.4 24.6 43.3 -2.3 4.4-4.4 8.9-6.1 13.6 5.3 4.9 9.4 11 15.4 15.1 2.5-4.7 2.1-10 2.6-15.1 3.4-3.1 7.8-0.6 11 1.4 1.3 8.7 0.4 17.5-2.7 25.8 3.3 1.7 6.6 3.5 9.9 5.3 -2.6 4-5.3 7.9-8.2 11.7 -5.1-3.9-10-8.2-14.1-13.2 0.4 11.1-0.3 22.4 0.8 33.5 5.5 6.9 13.4 11.8 20.1 17.6 1.2 3.6 1.1 7.3 0 10.7H113l10.9-33.7 10.9 33.7h35.5l-28.7 20.9 10.9 33.7 -28.6-20.9 -27.3 19.9c6.8 15.9 14.7 31.3 24 45.9h1104.2L1224.9 748.3 1224.9 748.3zM141.6 620.5l11 33.7 -28.6-20.8 -28.6 20.8 11-33.7 -28.7-20.8H113l10.9-33.7 10.9 33.7h35.5L141.6 620.5zM141.6 449.5l10.9 33.7 -28.6-20.9 -28.6 20.9 10.9-33.7 -28.7-20.8h35.5l11-33.7 11 33.7h35.5L141.6 449.5 141.6 449.5zM252.4 739.8L223.7 719 195 739.8 206 706l-28.6-20.8h35.4l11-33.7 11 33.7h35.4L241.5 706 252.4 739.8zM241.4 535l11 33.7 -28.7-20.9L195 568.7l11-33.7 -28.6-20.9h35.4l10.9-33.7 11 33.7h35.4L241.4 535zM241.5 363.9l10.9 33.7 -28.7-20.8L195 397.6l10.9-33.7 -28.6-20.8h35.4l10.9-33.7 11 33.7h35.4L241.5 363.9zM241.5 192.8l10.9 33.7 -28.7-20.9L195 226.5l10.9-33.7L177.3 172h35.4l11-33.7 11 33.7h35.4L241.5 192.8zM352.2 825.3l-28.6-20.9 -28.6 20.9 10.9-33.7 -28.7-20.9h35.5l10.9-33.7 10.9 33.7h35.5l-28.7 20.9L352.2 825.3zM341.2 620.5l11 33.7 -28.6-20.8 -28.6 20.8 11-33.7 -28.7-20.8h35.5l10.9-33.7 10.9 33.7h35.5L341.2 620.5zM341.2 449.4l10.9 33.7 -28.6-20.9 -28.6 20.9 10.9-33.7 -28.7-20.8h35.5l11-33.7 11 33.7h35.5L341.2 449.4zM341.2 278.4l10.9 33.6 -28.6-20.8L294.9 312l10.9-33.6 -28.7-20.9h35.5l10.9-33.7 10.9 33.7h35.5L341.2 278.4zM341.2 107.3l10.9 33.7 -28.6-20.8L294.9 141l10.9-33.7 -28.7-20.8h35.5l10.9-33.7 10.9 33.7h35.5C369.9 86.4 341.2 107.3 341.2 107.3zM452 739.8L423.3 719l-28.7 20.8 10.9-33.7 -28.6-20.8h35.4l11-33.7 11 33.7h35.5L441.1 706 452 739.8 452 739.8zM441.1 535l11 33.7 -28.7-20.9 -28.7 20.9 11-33.7 -28.6-20.9h35.4l10.9-33.7 10.9 33.7h35.5L441.1 535 441.1 535zM441.1 363.9l10.9 33.7 -28.7-20.8 -28.7 20.8 10.9-33.7L376.9 343h35.4l10.9-33.7 10.9 33.7h35.5L441.1 363.9 441.1 363.9zM441.1 192.8l10.9 33.7 -28.7-20.9 -28.7 20.9 10.9-33.7L376.9 172h35.4l11-33.7 11 33.7h35.5L441.1 192.8 441.1 192.8zM551.8 825.3l-28.7-20.9 -28.7 20.9 11-33.7 -28.7-20.9h35.5l10.9-33.7 10.9 33.7h35.5l-28.7 20.9L551.8 825.3 551.8 825.3zM540.8 620.5l11 33.7 -28.7-20.8 -28.7 20.8 11-33.7 -28.7-20.8h35.5l10.9-33.7 10.9 33.7h35.5L540.8 620.5 540.8 620.5zM540.8 449.4l10.9 33.7 -28.7-20.9 -28.7 20.9 11-33.7 -28.7-20.8h35.5l11-33.7 11 33.7h35.5L540.8 449.4zM540.8 278.4l10.9 33.6 -28.7-20.8L494.4 312l11-33.7 -28.7-20.9h35.5l10.9-33.7 10.9 33.7h35.5L540.8 278.4zM651.6 739.8l-28.7-20.8 -28.7 20.8 10.9-33.7 -28.6-20.8h35.4l11-33.7 11 33.7h35.5L640.6 706 651.6 739.8 651.6 739.8zM640.6 534.9l11 33.8 -28.7-20.9 -28.7 20.9 11-33.7 -28.6-20.9h35.4l10.9-33.7 10.9 33.7h35.5L640.6 534.9zM640.6 363.8l11 33.8 -28.7-20.8 -28.7 20.8 10.9-33.7L576.5 343h35.4l10.9-33.7 10.9 33.7h35.5L640.6 363.8 640.6 363.8zM640.6 192.8l11 33.8 -28.7-20.9 -28.7 20.9 10.9-33.7L576.5 172h35.4l11-33.7 11 33.7h35.5L640.6 192.8 640.6 192.8zM751.4 825.3l-28.7-20.9L694 825.3l11-33.7 -28.7-20.9h35.5l10.9-33.7 10.9 33.7h35.5l-28.7 20.9L751.4 825.3 751.4 825.3zM740.4 620.5l11 33.7 -28.7-20.8L694 654.2l11-33.7 -28.7-20.8h35.5l10.9-33.7 10.9 33.7h35.5L740.4 620.5 740.4 620.5zM740.4 449.4l10.9 33.7 -28.7-20.9L694 483.1l11-33.7 -28.7-20.8h35.5l11-33.7 11 33.7h35.5L740.4 449.4zM740.4 278.3l10.9 33.6 -28.7-20.8L694 312l11-33.7 -28.7-20.9h35.5l10.9-33.7 10.9 33.7h35.5L740.4 278.3zM851.2 739.7l-28.7-20.8 -28.7 20.8 10.9-33.7L776 685.2h35.5l11-33.7 11 33.7h35.5L840.2 706 851.2 739.7zM840.2 535l11 33.7 -28.7-20.9 -28.7 20.9 10.9-33.7L776 514.1h35.5l10.9-33.7 10.9 33.7h35.5L840.2 535 840.2 535zM840.2 363.8l11 33.7 -28.7-20.8 -28.7 20.8 10.9-33.7L776 343h35.5l10.9-33.7 10.9 33.7h35.5L840.2 363.8 840.2 363.8zM951 825.3l-28.7-20.9 -28.7 20.9 11-33.8 -28.6-20.8h35.5l10.9-33.7 10.9 33.7h35.4L940 791.6 951 825.3 951 825.3zM940 620.5l11 33.7 -28.7-20.8 -28.7 20.8 11-33.8 -28.7-20.8h35.5l10.9-33.7 10.9 33.7h35.4L940 620.5 940 620.5zM940 449.4l10.9 33.7 -28.7-20.9 -28.7 20.9 11-33.8 -28.6-20.8h35.5l11-33.7 11 33.7h35.4L940 449.4 940 449.4zM940 278.3L951 312l-28.7-20.8L893.6 312l11-33.7 -28.6-20.8h35.5l10.9-33.7 10.9 33.7h35.4L940 278.3 940 278.3zM1050.8 739.7l-28.7-20.8 -28.7 20.8 10.9-33.7 -28.7-20.8h35.5l11-33.7 11 33.7h35.5l-28.7 20.8L1050.8 739.7 1050.8 739.7zM1039.8 535l11 33.7 -28.7-20.9 -28.7 20.9 10.9-33.7 -28.7-20.9h35.5l10.9-33.7 10.9 33.7h35.5L1039.8 535 1039.8 535zM1039.8 363.8l11 33.7 -28.7-20.8 -28.7 20.8 10.9-33.7L975.6 343h35.5l10.9-33.7L1033 343h35.5L1039.8 363.8 1039.8 363.8zM1150.6 825.3l-28.7-20.9 -28.7 20.9 11-33.7 -28.6-20.9h35.5l10.9-33.7 10.9 33.7h35.4l-28.6 20.9L1150.6 825.3zM1139.6 620.5l11 33.7 -28.7-20.8 -28.7 20.8 11-33.7 -28.6-20.8h35.5l10.9-33.7 10.9 33.7h35.4L1139.6 620.5zM1139.6 449.4l10.9 33.7 -28.7-20.9 -28.7 20.9 10.9-33.7 -28.6-20.8h35.5l11-33.7 11 33.7h35.4L1139.6 449.4zM1139.6 278.3l10.9 33.7 -28.7-20.8 -28.7 20.8 10.9-33.7 -28.6-20.9h35.5l10.9-33.7 10.9 33.7h35.4L1139.6 278.3z"/><path class="st1" d="M160.8 86.4c0.4 2.1 0.7 4.1 1 6.2l8.5-6.2H160.8z"/><polygon class="st1" points="323.5 52.7 312.6 86.4 277.1 86.4 305.8 107.3 294.9 141 323.5 120.2 352.2 141 341.2 107.3 370 86.4 334.5 86.4 "/><path class="st1" d="M505.4 107.2l-11 33.7 28.7-20.8 28.7 20.8 -10.9-33.7 14.5-10.5c-3.5-0.7-6.9-1.4-10.4-2.1 -12.6-2.3-25-6.1-37.9-6.8 -1-0.5-2-0.9-3.1-1.3h-27.2L505.4 107.2 505.4 107.2z"/><path class="st1" d="M711.5 128.3c-4.2-0.7-8.4-1.5-12.7-2.2l-4.9 15L711.5 128.3z"/><path class="st1" d="M749.2 134.3c-3-0.4-5.9-0.9-8.9-1.3l11 8L749.2 134.3z"/><polygon class="st1" points="223.7 138.3 212.7 172 177.4 172 206 192.8 195 226.6 223.7 205.7 252.4 226.6 241.5 192.8 270.1 172 234.7 172 "/><polygon class="st1" points="423.3 138.3 412.3 172 377 172 405.6 192.8 394.6 226.6 423.3 205.7 452 226.6 441.1 192.8 469.7 172 434.2 172 "/><polygon class="st1" points="622.9 138.3 611.9 172 576.5 172 605.2 192.8 594.2 226.6 622.9 205.7 651.6 226.6 640.7 192.8 669.3 172 633.8 172 "/><path class="st1" d="M776.1 172l28.7 20.8 -10.9 33.7 28.7-20.9 28.7 20.9 -11-33.7 28.7-20.8h-35.5l-9.4-29c-1-0.1-2-0.2-3-0.3l-9.5 29.3L776.1 172 776.1 172z"/><path class="st1" d="M975.7 172l28.7 20.8 -10.9 33.7 28.7-20.9 28.7 20.9 -11-33.7 28.7-20.8H1033l-4.3-13.2c-0.7-0.1-1.4-0.1-2.1-0.1 -3.6-0.4-7.3-0.8-10.9-1l-4.7 14.3L975.7 172 975.7 172z"/><path class="st1" d="M152.6 312l-10.9-33.6 28.7-20.9h-35.5l-1.5-4.7c-0.5 1.8-1 3.6-1.5 5.3 -1.4 1.5-2.5 3.3-3 5.4 -2.1 6.2-4.3 12.3-6.6 18.5 -1.2 4.9-3 9.5-5 14l6.6-4.8L152.6 312 152.6 312z"/><polygon class="st1" points="323.5 223.8 312.6 257.5 277.1 257.5 305.8 278.4 294.9 312 323.5 291.2 352.2 312 341.2 278.4 370 257.5 334.5 257.5 "/><polygon class="st1" points="523.1 223.8 512.2 257.5 476.7 257.5 505.4 278.4 494.4 312 523.1 291.2 551.8 312 540.8 278.4 569.5 257.5 534.1 257.5 "/><polygon class="st1" points="722.7 223.8 711.8 257.5 676.3 257.5 705 278.4 694 312 722.7 291.2 751.4 312 740.4 278.4 769.2 257.5 733.7 257.5 "/><polygon class="st1" points="922.3 223.8 911.4 257.5 875.9 257.5 904.5 278.3 893.6 312 922.3 291.2 951 312 940 278.4 968.7 257.5 933.3 257.5 "/><polygon class="st1" points="1121.9 223.8 1111 257.5 1075.5 257.5 1104.1 278.4 1093.2 312 1121.9 291.2 1150.6 312 1139.6 278.4 1168.3 257.5 1132.9 257.5 "/><polygon class="st1" points="223.7 309.4 212.7 343.1 177.4 343.1 206 363.9 195 397.6 223.7 376.8 252.4 397.6 241.5 363.9 270.1 343.1 234.7 343.1 "/><polygon class="st1" points="423.3 309.4 412.3 343.1 377 343.1 405.6 363.9 394.6 397.6 423.3 376.8 452 397.6 441.1 363.9 469.7 343.1 434.2 343.1 "/><polygon class="st1" points="622.9 309.4 611.9 343.1 576.5 343.1 605.2 363.9 594.2 397.6 622.9 376.8 651.6 397.6 640.7 363.8 669.3 343.1 633.8 343.1 "/><polygon class="st1" points="822.5 309.4 811.5 343.1 776.1 343.1 804.8 363.9 793.8 397.6 822.5 376.8 851.2 397.6 840.2 363.9 868.9 343.1 833.4 343.1 "/><polygon class="st1" points="1022.1 309.4 1011.1 343.1 975.7 343.1 1004.4 363.9 993.4 397.6 1022.1 376.8 1050.8 397.6 1039.8 363.9 1068.5 343.1 1033 343.1 "/><polygon class="st1" points="123.9 394.9 113 428.6 77.5 428.6 106.2 449.5 95.3 483.2 123.9 462.3 152.6 483.2 141.6 449.5 170.4 428.6 134.9 428.6 "/><polygon class="st1" points="323.5 394.9 312.6 428.6 277.1 428.6 305.8 449.5 294.9 483.2 323.5 462.3 352.2 483.2 341.2 449.5 370 428.6 334.5 428.6 "/><polygon class="st1" points="523.1 394.9 512.2 428.6 476.7 428.6 505.4 449.4 494.4 483.2 523.1 462.3 551.8 483.2 540.8 449.5 569.5 428.6 534.1 428.6 "/><polygon class="st1" points="722.7 394.9 711.8 428.6 676.3 428.6 705 449.4 694 483.2 722.7 462.3 751.4 483.2 740.4 449.5 769.2 428.6 733.7 428.6 "/><polygon class="st1" points="922.3 394.9 911.4 428.6 875.9 428.6 904.5 449.4 893.6 483.2 922.3 462.3 951 483.2 940 449.4 968.7 428.6 933.3 428.6 "/><polygon class="st1" points="1121.9 394.9 1111 428.6 1075.5 428.6 1104.1 449.4 1093.2 483.2 1121.9 462.3 1150.6 483.2 1139.6 449.4 1168.3 428.6 1132.9 428.6 "/><polygon class="st1" points="223.7 480.4 212.7 514.1 177.4 514.1 206 535 195 568.7 223.7 547.9 252.4 568.7 241.5 535 270.1 514.1 234.7 514.1 "/><polygon class="st1" points="423.3 480.4 412.3 514.1 377 514.1 405.6 535 394.6 568.7 423.3 547.9 452 568.7 441.1 535 469.7 514.1 434.2 514.1 "/><polygon class="st1" points="622.9 480.4 611.9 514.1 576.5 514.1 605.2 535 594.2 568.7 622.9 547.9 651.6 568.7 640.7 535 669.3 514.1 633.8 514.1 "/><polygon class="st1" points="822.5 480.4 811.5 514.1 776.1 514.1 804.8 535 793.8 568.7 822.5 547.8 851.2 568.7 840.2 535 868.9 514.1 833.4 514.1 "/><polygon class="st1" points="1022.1 480.4 1011.1 514.1 975.7 514.1 1004.4 535 993.4 568.7 1022.1 547.8 1050.8 568.7 1039.8 535 1068.5 514.1 1033 514.1 "/><polygon class="st1" points="123.9 566 113 599.7 77.5 599.7 106.2 620.5 95.3 654.2 123.9 633.4 152.6 654.2 141.6 620.5 170.4 599.7 134.9 599.7 "/><polygon class="st1" points="323.5 566 312.6 599.7 277.1 599.7 305.8 620.5 294.9 654.2 323.5 633.4 352.2 654.2 341.2 620.5 370 599.7 334.5 599.7 "/><polygon class="st1" points="523.1 566 512.2 599.7 476.7 599.7 505.4 620.5 494.4 654.2 523.1 633.4 551.8 654.2 540.8 620.5 569.5 599.7 534.1 599.7 "/><polygon class="st1" points="722.7 566 711.8 599.7 676.3 599.7 705 620.5 694 654.2 722.7 633.4 751.4 654.2 740.4 620.5 769.2 599.7 733.7 599.7 "/><polygon class="st1" points="922.3 566 911.4 599.7 875.9 599.7 904.6 620.5 893.6 654.2 922.3 633.4 951 654.2 940 620.5 968.7 599.7 933.3 599.7 "/><polygon class="st1" points="1121.9 566 1111 599.7 1075.5 599.7 1104.1 620.5 1093.2 654.2 1121.9 633.4 1150.6 654.2 1139.6 620.5 1168.3 599.7 1132.9 599.7 "/><polygon class="st1" points="234.7 685.2 223.7 651.5 212.7 685.2 177.4 685.2 206 706 195 739.8 223.7 719 252.4 739.8 241.5 706 270.1 685.2 "/><path class="st1" d="M434.2 685.2l-11-33.7 -11 33.7h-35.4l28.6 20.8 -10.9 33.7 28.7-20.8 28.7 20.8 -10.9-33.7 28.6-20.8H434.2L434.2 685.2z"/><polygon class="st1" points="633.8 685.2 622.9 651.5 611.9 685.2 576.5 685.2 605.2 706 594.2 739.8 622.9 719 651.6 739.8 640.7 706 669.3 685.2 "/><path class="st1" d="M833.4 685.2l-11-33.7 -11 33.7h-35.5l28.7 20.8 -10.9 33.7 28.7-20.8 28.7 20.8 -11-33.7 28.7-20.8L833.4 685.2 833.4 685.2z"/><polygon class="st1" points="1033 685.2 1022.1 651.5 1011.1 685.2 975.7 685.2 1004.4 706.1 993.4 739.8 1022.1 719 1050.8 739.8 1039.8 706 1068.5 685.2 "/><path class="st1" d="M152.6 825.3l-10.9-33.7 28.7-20.9h-35.5L123.9 737 113 770.7H93.5c-0.7 2.2-1.8 4.3-3.3 6.2 -0.6 0.6-1.2 1.2-1.9 1.7l17.9 13 -10.2 31.3c0.2 0.5 0.4 1 0.6 1.4l27.3-19.9L152.6 825.3 152.6 825.3z"/><polygon class="st1" points="334.5 770.7 323.5 737 312.6 770.7 277.1 770.7 305.8 791.6 294.9 825.3 323.5 804.5 352.2 825.3 341.2 791.6 370 770.7 "/><polygon class="st1" points="534.1 770.7 523.1 737 512.2 770.7 476.7 770.7 505.4 791.6 494.4 825.3 523.1 804.5 551.8 825.3 540.8 791.6 569.5 770.7 "/><polygon class="st1" points="733.7 770.7 722.7 737 711.8 770.7 676.3 770.7 705 791.6 694 825.3 722.7 804.5 751.4 825.3 740.4 791.6 769.2 770.7 "/><polygon class="st1" points="933.3 770.7 922.3 737 911.4 770.7 875.9 770.7 904.5 791.6 893.6 825.3 922.3 804.5 951 825.3 940 791.6 968.7 770.7 "/><polygon class="st1" points="1132.9 770.7 1121.9 737 1111 770.7 1075.5 770.7 1104.1 791.6 1093.2 825.3 1121.9 804.5 1150.6 825.3 1139.6 791.6 1168.3 770.7 "/><path class="st1" d="M1224.9 626.5v121.9h1069.6c-2.5-7.3-10.5-12.9-16.2-17.9 -7.8-5.8-9.7-15.7-10.6-24.7 1.5-0.4 4.6-1.2 6.1-1.6 -3.7-17.1-7.4-35.7-0.6-52.6 2.6-7.6 10.1-11.6 16.8-15 1.3 12.9-9.4 24.1-5.2 37.1 0.4 4.3 5.7 3.1 8.8 4 0.4 10.3-1.8 20.7 0.5 30.8 3.9 3.1 6.8-2.8 10.4-2.4 4.2 9.7 9.1 19 15.7 27.3 3.7 4.3 3.4 9.7 3 15.1h9c1.4-9.1 2-18.3 2.5-27.4 0.3-9.4 8.9-15.6 10.5-24.6 -0.9-4.1-2.6-7.9-4.3-11.7 -3.6-1.1-7.5-1.9-9.4-5.5 -9.5-13.8-19.3-27.4-27.1-42.3 3.6-2.2 7.5-4.9 12-4.3 2.9 4.2 2.9 9.8 4.1 14.7 6.2 3.1 12.6 5.9 19 8.6 0.3 1.8 0.8 5.3 1.1 7.1 2.8-1.6 6.2-2.6 8.4-5.3 2.5-7 1-15 4.7-21.6 1.7-3.3 3.6-6.5 5.5-9.7L1224.9 626.5 1224.9 626.5z"/><path class="st1" d="M2442 163.3c-1.1 7.4-5.1 14-6.8 21.2 -1 4.5 4.7 5.8 7.3 8.2 -2 7.8-5.8 14.9-10 21.7 -2.5 3.4-1.6 7.6-1.4 11.5 -6.9 8.2-10.3 19.2-19.4 25.6 -2.6 2.4-4.2 6.2-6.1 9.5h118.3c2.4-2.6 5.8-4.2 8.6-6.4 -0.2 2.1-0.4 4.2-0.6 6.4h13.8c0.2-0.7 0.5-1.3 0.7-2 3.1-0.1 6.2 0 9.4-0.4 2.3-2.2 4.1-4.8 6.1-7.2h0.3c8.6-13.4 20.9-23.7 32.7-34.1 -4.4-4-8.5-8.4-12.9-12.3 -3.7-3.7-10.7-1.9-13.4-6.8 -2.3-3.4 0.5-7.4 0.9-11 -6.1-1.4-12-3.1-17.9-5.2 0.2-10-8.4-16.9-10.1-26.4 -1.1-5.5-2.4-10.9-3.7-16.4h-94.5C2443.2 147.2 2443.2 155.3 2442 163.3L2442 163.3z"/><path class="st1" d="M1674.7 251.1c6.4-2.8 10.1-9.7 11.2-16.4 -8.4 3.7-15.6 9.5-21.4 16.6h-1.2c-4.3 3.1-8.5 6.3-12.7 9.6h15.8C1669.3 257.8 1671.8 254.2 1674.7 251.1z"/><path class="st1" d="M1533.9 260.9c3.8-3.6 7.8-6.9 12.1-9.9 15.8-8.9 29.8-20.8 46.5-28.2 3.8-1.4 6.1-4.8 8.4-7.9 -3.5-1.1-6.9-2.1-10.4-3.2 -0.4-1.2-1.3-3.6-1.7-4.9 -9.8-1.1-19.4 1-29 2.4 -2.8-2.6-5.7-5.2-8.6-7.7 -3.2 5.6-5.7 11.8-10.4 16.4 -3.7 3.6-9.5 2.5-13.6 0.3 -6.6-3.4-10.3-10.1-15.8-14.7 -9.6-5-19.4 5.8-28.6 0 -9.2-3.8-12.9-15.2-23-17.5 -4-1.6-7.5 1.3-10.9 2.7 -6.4 3.9-13.6-0.4-20-2.1 -10.9-4.3-23.5-1.2-34-7 -4-2.1-8.7-5.1-8.4-10.3 -1-9.1-0.4-20.9-10.1-25.4 -0.8 7 3.1 20.7-8 20.3 -42 0-84.1-0.7-126.1-1 -5.8-0.1-11.5-0.1-17.3-0.2v97.8L1533.9 260.9 1533.9 260.9z"/><path class="st1" d="M120.7 870.2c0.9 1.4 1.8 2.7 2.7 4 5 12.3-5.8 23.5-4.2 35.8 1.2 8 7.3 14.9 15 17.3 11.8 3.8 23.9 7.8 34.2 15 5.2 3.6 5 10.7 6.7 16.2 9.3 4.9 19.3 8.5 29.8 10.1 9.9 0.7 12.5 12.6 10.4 20.6 1 1 2 1.9 3.1 2.8h2049.4c-2-3.9-5.2-7.2-7.6-10.8 4.5-3.3 9.5-6.4 12.6-11.2 6-8.8 9.1-20.3 19.2-25.6 9.3-8.2 21.8-1.8 32.7-3.9 4.5-0.8 10.3-3 11.1-8.1 -1-4.9-3.2-9.5-6.1-13.5 -2.4-0.2-4.9-0.1-7.2 0 -1.4-5-2.6-10.1-3.8-15.1 -5.2-0.2-10.4-0.6-15.5-1.5 3.1-5.8 9.1-9.2 15.3-10.9 5.8 2 10.9 5.6 16.5 8.1 4.8-8.4 8.7-17.4 14.5-25.2 0.4-1.3 0.8-2.7 1.2-4L120.7 870.2 120.7 870.2z"/><path class="st1" d="M1954.7 502.6h0.6c1.5-6.5 5.4-13.9 1.3-20.2 -3.2-6.3-10.3-8.7-16-12.2 0.4-5 0.2-10-1.7-14.7 -2.8-7.5-3.4-15.6-5.3-23.3 -0.7-2.7-2.4-6.3-5.7-5.5 -5.7 0.7-11.8 1.8-16.6 5.1 -6.6 5.4-5.8 14.5-8.6 21.7 -8.1 3.9-19.2 0.5-24.6-6.5 -3.4-8.9 2.1-18.7 10.9-21.7 1.3-5.4 1.9-11 3.6-16.3 2.3-4.3 6.2-7.5 7.8-12.2 0.9-4.6 1-9.3 0.9-14h-116.4c-5 6-8 13.7-15.2 17.4 2.2 9.7 3.3 19.8 1.5 29.7 -1.3 4.8-7.7 9.2-4.3 14.4 4.4 7.1 2.8 16.4-3.4 22 2.6 2.8 5.7 5.3 7.3 8.9 4.2 10.2 12.4 17.9 17.7 27.5 0 0.7 0 1.4 0 2.1h165.7C1954.3 503.9 1954.5 503.3 1954.7 502.6L1954.7 502.6z"/><path class="st1" d="M2230.5 392c-0.2 4.2-3.8 7.2-5.9 10.6 -4.9 1-10.6 0.8-14.3 4.4 -3.4 3.7-5 8.6-7.8 12.7 -8.1 4.4-17.7 2.3-26.3 4.8 -4.5 1-8.9 3.7-13.5 2.2 -7.5-1.7-15.5-2.9-22.9-0.3 -13.6 4.9-27.7 8.7-41 14.6 3.9 9 13.6 14 16.9 23.3 0.1 5.1 0.3 11.2-4 14.8 -8.5 8-18.3 14.8-26.3 23.4 -0.5 0.7-1.1 1.4-1.6 2H2399c0.8-0.3 1.6-0.6 2.4-1l1.3 0.2 -0.8-1.3c7.1-4.8 13.3-11 21-14.9 7.6-3.8 17.3 3.8 24.1-2.5 4.7-4 10.6-5.8 16.1-8.4 4.3-5.3 6.7-11.8 10.4-17.5 3.4 0 6.9 0 10.3 0 4.6-6.8 12.9-7.4 19.6-10.8 -9.6-14.7-21.8-27.4-32.5-41.3 0.3-6.2 2.2-12.4 1.1-18.7 -0.3-2-0.9-3.9-1.8-5.8h-249.2C2224.1 385.9 2227.7 388.6 2230.5 392L2230.5 392z"/><path class="st1" d="M1224.9 382.8v121.9H1706c0-0.7 0.1-1.3 0.2-2 -0.6-9.5-1-19.4 3.9-27.9 6.5-9.8-3.4-21.2 1.2-31.5 2.7-3.5 6.2-6.1 9-9.4 1.5-6.4-4.8-12.2-2.7-18.7 3.2-10.7 7.4-21.2 8.9-32.4h-0.8c-1.8 2.1-3.5 4.2-4.8 6.6 -4.5 8.3-11.6 14.8-19.4 19.9 -2.9 2.1-6.5 1.1-9.8 1.1 0.3-3.6-0.4-7.8 2.4-10.7 4.2-5.4 9.1-10.7 12-16.9L1224.9 382.8 1224.9 382.8z"/><path class="st1" d="M1537.1 1358.1c1.6-0.1 3.2-0.3 4.8-0.5h-10.1C1533.6 1357.8 1535.3 1358 1537.1 1358.1z"/><path class="st1" d="M937.5 1376.2c5.4 6 11.2 12.9 19.7 14.1 9.3 2.7 13.7-8.4 19.3-13.7 2.5-6.6 6.2-12.7 9.3-19h-77.3C916.9 1365.4 927.5 1370.8 937.5 1376.2z"/><path class="st1" d="M1070.6 1364.4c2.6 4.2 5.7 8 8.5 12.1 7.4 8.9 20.8 13.3 23.3 25.6 1.5 5.7 5.7 10.1 9.2 14.6 5.7 7.2 8.5 16.1 12.6 24.2 6.7 14.2 18.3 25.2 26.5 38.4h138.7c2.9-1.4 5.7-3 7.3-6 5.3-9.8 10.4-20.4 19.1-27.7 3.5-0.1 7 0.5 10.6 0.2 4.1-1.3 6.2-5.5 8.7-8.7 -5.8-2.5-14.8-5.7-11.7-13.8 7.6-0.7 15.7-1.9 22.8 1.8 6.1-1.4 12.5-2.9 17.2-7.3 8.3-7.4 16.6-14.9 25.8-21.1 9.2-6.8 20.4-11.2 27.7-20.3 0.8-1.9 1.6-3.7 2.3-5.5 -3.4-0.3-6.9-0.2-10.2-0.9 -2.9-2.7-3.7-6.8-4.9-10.4 2.8-0.6 5.7-1.3 8.5-2h-345.1C1068.4 1359.9 1069.3 1362.2 1070.6 1364.4L1070.6 1364.4z"/><path class="st1" d="M1429.4 1369.9c13.3-2.3 25.7-7.7 38.4-12.3h-44.4C1422.7 1362.5 1424.8 1367.6 1429.4 1369.9z"/><path class="st1" d="M1600.3 1358.9c1.2-0.3 3.4-0.9 5.1-1.4h-7.6C1598.6 1358 1599.4 1358.5 1600.3 1358.9z"/><path class="st1" d="M2079.2 1376.5c-0.7 12.8-3.7 25.2-5.2 37.9 4.6 0.9 9.3 1.7 13.9 2.6 -1.3-2.8-2.7-5.6-3.5-8.5 1.9-5.1 7-6.5 12-6.1 1.9 5.1 5.1 10.4 4.4 16.1 -2.9 6.2-13.8 8.1-11.8 16.3 4.5 7.3 12.1 12.4 15.7 20.4 2.6 4.6 3.6 11 9.2 13 6.2 2.8 11.8 6.6 16.7 11.2h108.2c0.1-8.7-0.2-17.5 0-26.2 0.9-12.1-10.1-19.3-16.5-27.9 -12.3-15.9-24.1-32.2-34.7-49.4l-0.6 0c-3.4-6.1-8.1-11.6-10-18.5h-98.6C2079.7 1363.7 2079.1 1370.4 2079.2 1376.5L2079.2 1376.5z"/><path class="st1" d="M1689.5 1367.4c13.6 4.4 27 12.2 41.8 8.7 -0.6-1.2-1.8-3.7-2.4-4.9 -8.4-6-18-9.9-27.5-13.7H1675C1679.5 1361.4 1683.9 1365.3 1689.5 1367.4L1689.5 1367.4z"/><path class="st1" d="M1619.1 1376.6c7.1 5.3 19.4 8.6 25.2-0.1 2.1-2.7 4.2-5.5 6.9-7.7 2.5 0.1 5 0.6 7.5 1.3 0.8 2.1 1.5 4.3 2.4 6.4 5 0.1 10.1 0.1 15.1 0.2 1-2.5 2.1-4.9 3.2-7.3 -3.9-2.9-8.2-5.2-11.8-8.3 -0.9-0.8-1.3-2.2-1.2-3.6H1607C1612.2 1363.1 1616.9 1369.2 1619.1 1376.6L1619.1 1376.6z"/><path class="st1" d="M400.8 1114.6c8.3 4.9 15.9 11.3 24.9 14.8 12.6 10.8 27.6 18 41.8 26.4 30.2 16.7 60.3 33.6 91 49.4 8.1 5.1 17.7 1.8 26.5 3.2 27.8 3.3 55.7 6.5 83.5 10.1 13.1 1.4 25.3 7.7 38.7 7.5 -0.4-6.1-1.8-12.2-1.1-18.2 1.8-4.4 6.8-6 11.1-6.6 26.4-4.1 53 2.3 79.4-0.3 6.6 3.7 8.7 11.9 13.4 17.5 4.8 5.8 9.6 11.7 14.6 17.4h1293.4c-1.8-6.3-3.4-12.6-4.1-19 1-7.4 4.3-14.4 5.1-21.9 2.1-17 6.3-34.3 16.6-48.3 3.8-4.9 4.3-11.1 5-17 1.7-5.4 5-10.2 10.1-12.7 1.4-0.8 2.7-1.8 3.9-2.9H399.4C399.9 1114.1 400.3 1114.4 400.8 1114.6L400.8 1114.6z"/><path class="st2" d="M2523.8 100.3c-3.7-4.5-6.1-9.8-9.9-14.2 -4.9-2.6-10.5-3.3-15.8-4.6 -4.2 4.9-7.7 11.1-14.1 13.6 -6.3 2.8-12.9 5-19.4 7.4 1.6-3.4 3.3-6.8 4.6-10.3 -4.4-0.3-8.9-0.3-13.3-0.2 0.3 4.4 3.9 9.9-0.6 13.2 -6.2 5.6-11 12.6-11.5 21.2 -0.3 4.2-0.4 8.5-0.5 12.7h94.5c-1.1-4.3-2.2-8.5-3.5-12.7C2530.8 117.7 2530.8 107.3 2523.8 100.3L2523.8 100.3z"/><path class="st2" d="M1726.6 381.7c-0.3 0.4-0.6 0.7-1 1.1h0.8C1726.5 382.4 1726.6 382 1726.6 381.7z"/><path class="st2" d="M2531.6 265.2c4.2 0 8.4 0.2 12.7-0.4 0.5-1.3 1-2.6 1.5-3.8H2532C2531.8 262.3 2531.7 263.8 2531.6 265.2z"/><path class="st2" d="M2397.7 267.2c-10.6 1.5-20.9 4.2-31 7.4 -11.5 3.7-24.1 1.4-35.4 5.8 -9.6 3.4-20 4.5-29 9.5 -12.2 6.5-27 2.9-39.1 9.4 -6.7 2.5-9.6 9.5-13.7 14.7 -8.7 11.8-16.7 24-24.3 36.5 -3.4 6.7-11.9 6.5-17.9 9.3 0.2 1.7 0.6 5.1 0.8 6.8 5.3-0.2 10.5-0.5 15.8-0.7 -0.4 1.5-1.2 4.5-1.6 6h-1c-0.8 2.8-2.5 5.6-2.1 8.6 0.6 0.8 1.3 1.5 2 2.2h249.2c-1.7-3.8-4.2-7.2-6.4-10.7 2.3-17.7 14.8-32.4 16-50.4 0.3-4.5 4.4-7.1 7.1-10.1 4.2 0.3 9.3 2.1 12.8-1.3 6-5.1 10.3-11.9 15.8-17.5 1.4 0 4.3 0 5.8-0.1 3.2-9.5 0.1-19.7 0.9-29.4 0.4-0.9 1-1.7 1.7-2.4h-118.3C2403.8 263.9 2401.5 266.5 2397.7 267.2L2397.7 267.2z"/><path class="st2" d="M1901.2 377.3c-3.8-1.8-7.4-4.1-10.2-7.3 -0.7-6.1 3.3-10.5 7.4-14.3 -7.8-1.3-11.1-10.9-19.4-9.9 -6.6 0.2-13.1 0.2-19.5-1.5 -1.3-5-2.9-10-4.7-14.9 -4 0.5-8.1 0.9-12.1 1.2 -0.8 0.7-2.3 2-3.1 2.7 -2.6-3.8-5.3-7.4-9.1-10.1 -1.4 3.1-2.5 6.3-4.3 9.2 -4.1 2.9-8.9 4.4-13.4 6.4 2.3 2 4.5 4 6.8 6 -0.2 4.5-0.5 8.9-0.8 13.4 -4.3 0.2-8.6 0.3-12.8 0.4 0.5 4.4 0.8 8.8 1.1 13.3 -0.6 3.3-1.2 6.5-1.8 9.8 -7.1-1.5-6-10.1-11.2-13.3 -2.3 4.1-3.8 8.7-7.3 12.1 -0.7 0.7-1.4 1.4-2.1 2.2h116.4C1901.3 380.9 1901.2 379.1 1901.2 377.3L1901.2 377.3z"/><path class="st2" d="M1224.9 260.9v121.9H1706c1.6-3.3 2.6-6.8 2.6-10.8h0.5c4.8-12.8 6.4-29 19.4-36.6 2.2 1.2 4.6 2.1 7 2.9 2.6-3.6 4.7-8.4 9.6-9.2 3.4 3.1 4.4 7.9 6.3 11.9 1.3-4 2.3-8.2 4.3-11.9 3.2-4.8 8.5-7.5 13.3-10.4 6.3 2.6 13.1 1 19.7 0.5 -0.7-0.8-2-2.5-2.6-3.3 2.1-4.4 5-8.4 8.7-11.6 5.4 1.6 12 1.6 15.8 6.5 4 4.9 8.3 9.7 13.3 13.7 2.7-4.6 4.2-9.7 6.3-14.5 1-3.3 5.3-1.5 7.8-1.7 13.8 2 27.8 1.9 41.8 2.2 -0.4-2.8-0.7-5.7-1-8.5 -7.5 0.1-15.2-0.2-22.5-2.2 -3.8-2-7-5-10.3-7.7 1.1-4.9 1.2-10 1.1-15 -3.1 3.2-6.1 6.6-9.2 9.8 -8.4 0.4-16.8 0.4-25.1-0.1 -1.8-1.8-3.5-3.5-5.2-5.3 0.8-1.1 2.3-3.2 3-4.2 -0.4-1.4-1.1-4.3-1.4-5.7 -3.3-0.7-6.5-1.4-9.8-1.6 -3.4 1.5-6.1 4.2-9 6.4 -7.8 7.4-20.1-0.3-28.5 5.8 -8.8 5.6-17.1 12.5-22.6 21.5 -3.6-3-7.2-6-10.8-9.1 -6.5 0.2-13.1 0.9-19.6 0 -7.7-4.1-10.1-14.9-19.1-17.3 -10.1-3.6-18.3 8-28.5 3.9 -1.5-2.5-2.4-5.3-3.4-8 -3.7-1.6-8.9-2.4-8.9-7.5 4.8-2.7 10.3-3 15.7-3.5 0.6-0.5 1.1-1 1.6-1.5h-15.8c-10.5 8.2-20.9 16.8-31.8 24.4 -4.4 3.3-10.4 3-15.1 5.6 -3.2 2.7-5 6.9-8.5 9.3 -7.8 1.5-15.7 2.2-23.6 3 -4.7 0.5-8.4-2.5-12-5 2.4-11 17.3-12.1 18.8-23.6 -5.3 3.6-9.8 8.1-14.9 12 -2.4-1.3-4.9-2.6-7.3-3.8 -8.2 7.3-18.9 10.2-29 13.7 -8.3 2.7-16.9 5.4-25.7 4.1 4.2-6 10-10.6 13.8-16.8 5.4-8.2 11.5-16 18.6-22.8L1224.9 260.9 1224.9 260.9z"/><path class="st2" d="M2060.2 525.9c-13.5 11.1-30.9 17-42.3 30.7 -7 6.9-13.7 17.4-25 16.5 -6.1-0.6-12.4 0.5-17.5 4.1 -3.2 5.4-6.4 11-12.5 13.5 -7.8-5.5-17-8.8-24.3-15.1 -5.2-4.8-12.6-2.5-18.9-2.6 0.2-4.7 0.1-9.5 1.1-14.2 1.9-4.5 5.9-7.9 7.1-12.7 0-4.8-1.5-9.7 0.2-14.4 4-8.5 11.4-15 20-18.7 3.7-1.4 5-4.9 6-8.4h-165.7c0.1 11.7 0.4 23.5-0.9 35.1 -3.8 19.8-13.9 38.9-29.3 51.9 -10.3 0.1-22 2.6-31-3.8 -2-5.1-2.1-10.7-4.3-15.7 -2.7-4.9-6.7-9.2-7.5-14.9 -1.4-9.8 0.3-19.6 0-29.4 -0.9-8.7-9.6-14.4-9.4-23.1h-481.1v121.9h1134.4c0.7-1.1 1.4-2.3 2-3.4l1.3 0c2.8-5 6.3-10 6.3-16 0.6-12 4.9-24.7 0.2-36.4 -5-4.4-13-3.9-17.5-8.9 -2.2-6.7 3.5-12.5 7.3-17.4 6.2 4.8 13.9 6.4 21.5 7.4 -1.2-2.5-2.4-5-3.5-7.6 5.3-0.3 11.4 0.5 15.7-3.3 14.3-14.1 36-14.5 52.4-25.4 -2.7-2.3-5.4-4.6-8-6.9 -3.8-4.6-10.4-3-15.5-2.7 -0.5 5.1 0.3 11.4-5.4 13.7 -15.1 11.9-34.2 19.6-53.6 17.2 0.4-3.6 0-7.5 1.6-10.9 3.5-2.5 8.4-1.7 12.2-3.7 4.8-3.3 7-9 11.3-12.8 3.6-2 7.6-3.3 11.5-4.8h-315.4C2076.8 512.8 2068.3 519.2 2060.2 525.9L2060.2 525.9z"/><path class="st2" d="M2322.9 753.8c-4.1 2.6-7.9 6.7-9 11.6 -1 4.4 2.5 8 4.5 11.6 2.1-2.9 4.3-5.8 6.3-8.8 -0.9-2.2-1.7-4.3-2.2-6.6 2.5-3.1 5.8-5.4 8.8-8 0.3-1.7 0.6-3.5 0.9-5.2h-9C2323.1 750.2 2322.9 752 2322.9 753.8z"/><path class="st2" d="M1224.9 748.3v121.9H120.7h2229.8c1.9-7 3.2-14.3 0.5-21.2 -3.1-7.4-7.7-14.9-15.4-18.2 -1.3-10.1-0.6-20.3-1.9-30.3 -3 0.7-5.5 2.6-8 4.3 -5.4-3.6-8.3-9.6-11.6-14.9 -5.8-1.6-13.8-1.8-16.5-8.2 -0.4-4.9 0-9.7 0-14.5 -4.1-1-8-2.2-11.9-3.6 3.1-2 8-2.7 9.1-6.8 0.8-3 0.5-5.8-0.4-8.3L1224.9 748.3 1224.9 748.3z"/><path class="st2" d="M240 1008.6c9.7 10.5 19.4 22.7 19.9 37.7 1.3 9.3-3.6 19.6 2.5 27.8 2.8 6 10.2 5.9 15.8 6.7 30.8 2.8 61.7 4.3 92.5 7.8 12.3 5 17.8 18.6 28.9 25.3h1755.3c8.1-7.4 11-19.4 19.5-26.4 12.7-8.4 25.7-16.6 37.5-26.2 -1.5-4.5-2.9-9-4.7-13.3 8.6-13.4 17.9-26.3 26.7-39.5 9.3-3.9 19.5-3.7 29.3-5.1 2-2.7 4.1-5.3 5.8-8.2 -0.3-1.1-0.8-2.1-1.3-3H218.3C225 998.1 232.2 1003.8 240 1008.6L240 1008.6z"/><path class="st2" d="M844 1255.8c10 10.8 21.5 20.4 31.2 31.5 4.9 7.3 9.2 15.1 13.7 22.7 6.8 12 4.6 27 12.2 38.6 2.1 3.3 4.7 6.3 7.5 8.9h77.3c0.7-1.4 1.3-2.8 1.9-4.2 2.2-6.8 10.2-7 15.9-8.8 8.1-2.6 16.5 0.1 24.7 0.4 11.8 1.3 24.5-1.2 35.7 3.7 1.5 2.8 2.4 5.9 3.5 8.9h345.1c3.9-1 7.8-2 11.7-3.3 -0.5 1.1-0.8 2.2-1 3.3h44.4c4.1-1.5 8.3-2.9 12.5-4.2 8.1-1.1 16.2-3.1 24.3-4 8.8 3.4 17.8 6.9 27.2 8.2h10.1c6.7-0.8 13.4-2.1 20.2-2.8 -2.7-1.4-5.4-2.9-8-4.4 9.2-4.4 20.2-2.2 30.1-2.8 4.7 3.1 8.7 7.2 13.5 10.1h7.6c0.5-0.1 1-0.3 1.3-0.4 0.1 0.1 0.2 0.2 0.3 0.4h59.3c0.1-2.6 1.7-5.2 4.4-3.5 1.5 1.1 2.9 2.3 4.3 3.5h26.4c-2.3-0.9-4.6-1.8-6.9-2.8 -3.9-1.3-4.5-6.2-2.5-9.3 3.4-9.9 19.1-7.1 20.5-18.4 -4.6-1.3-9.2-2-13.9-2.4 -0.4 1.6-1.1 4.9-1.5 6.5 -2.6 0.5-5.2 0.9-7.8 1.4 -1.1-7.2-8.1-9.2-14-11.4 -3.9 3.4-8 8.8-13.9 7.2 -7.9-1.5-12.3-13.4-5.4-18.7 4.6-2.9 9.3-9 15.3-6.6 10.7 1.5 18.4 12.6 30 9.3 7.9-11.4 23.2-12.8 35.4-17 11.2 2.3 22.8 1.4 33.8-2 3.8-4.8 5.6-11.3 11.2-14.8 3 6.9 4.7 14.4 8.9 20.6 2.6 1.7 6.8 1.5 8.6-1.3 3.4-4.4 6.2-9.3 9.5-13.8 2.5 2.5 4.9 5.1 7.4 7.7 5.1-3.3 5.8-9.8 9.8-13.9 7.6-2.1 10.7 5.8 12.9 11.4 3.6 2.3 5.7-2.9 8.6-4.3 9.5-5.4 21.3-7.1 31.6-3.1 2.2 3 3.7 6.5 5.9 9.6 7.8 0.9 14.3-4.6 21.1-7.6 4.9 0.6 2 7.1 2.9 10.4 3.7 5.1 8.4 9.4 13.7 13.1 4.8 2.7 1.5 13.3 9.3 11.4 7.3 0.6 11.2-7.3 18-8 4.2-1 9.1-1.3 11.9-5.1 5.1-6.5 8.8-14 13.2-21 1.3-1.9 2.7-5 5.7-4.3 11.1 1 24.7 2.6 31.2 13 7.9 14.3 22.4 22.8 34.9 32.6 8.5 7.1 19.6 10.8 26.2 20.1 3.1 3.3 4.7 7.1 5.4 11.3h98.6c0 0 0 0 0 0 -0.6-2.6-0.6-8 3.2-8 4 1.2 7.7 3.1 11.7 4.5 -7.1-9.8-13.5-20.4-23.1-28 -11.1-9.5-19.2-21.8-27.1-34 -6.9-11.5-15.2-22.6-18.1-35.9 -1.5-6.9-3.6-13.6-5.6-20.4H824.7C830.9 1242.7 837.3 1249.5 844 1255.8L844 1255.8z"/><path class="st2" d="M2146.5 1502.8h0.3c6.7 16.3 28.4 14.5 38.6 27.4 -0.7 1.5-1.9 4.6-2.6 6.2 4.4 6.8 8.3 14.1 13.9 20.1 6.2 1.6 13 0.9 19.2-0.6 5.4-4.1 10.4-8.7 15.5-13.1 0.3-3.5 0.6-7 1.6-10.3 4.2-9.7-2.3-20.5 3.6-29.8 1.6-7.7 2.1-15.5 2.3-23.3h-108.2C2137.5 1485.9 2143 1493.9 2146.5 1502.8L2146.5 1502.8z"/><path class="st2" d="M1153 1483.4c3.9 6.9 6.7 14.4 8.7 22.1l0.8-1.2c2.5 7.8 5.6 15.6 10.1 22.5 6.5 10 9.7 21.7 14.4 32.6 6 8.9 17.3 10.6 26.9 13 5.2 0.7 4.9 7.7 9.4 9.3 12.4 3.9 25.8 1.7 38.3 5 6.4 1.6 10.2 8.1 16.7 9.7 2.4 0.7 5.9 1.4 7.3-1.4 2.2-5.5 0.6-11.7-0.1-17.3 -1.3-8.6-9.1-14.1-11.2-22.4 0.8-7.5 2-14.9 1.2-22.4 0.1-10.1-7.3-20.5-0.5-29.9 3.9-5.9 5.1-13 7.6-19.6 2-1.6 4.4-2.7 6.8-3.8h-138.7C1151.5 1480.8 1152.3 1482.1 1153 1483.4L1153 1483.4z"/></svg>